/* XPM */
static char *image[] = {
"48 48 83 2",
"   c None",
"00 c #909cb8",
"10 c #90a0b8",
"20 c #90a0c0",
"30 c #8090b8",
"40 c #8094b0",
"50 c #a0b4c0",
"60 c #e8f0f0",
"70 c #f0f4f8",
"80 c #f0f0f0",
"90 c #8098b8",
":0 c #a0b8c8",
";0 c #a0a4c8",
"A0 c #805850",
"B0 c #889cb8",
"C0 c #b08040",
"D0 c #5860a0",
"E0 c #b88440",
"F0 c #a87848",
"G0 c #705050",
"H0 c #7074a8",
"I0 c #a8bcc8",
"J0 c #202480",
"K0 c #101070",
"L0 c #101078",
"M0 c #d0e0e0",
"N0 c #b0c0c8",
"O0 c #7880b0",
"P0 c #d8e0e0",
"Q0 c #505898",
"R0 c #c0ccd8",
"S0 c #98b0c0",
"T0 c #b0c8d0",
"U0 c #98a4c0",
"V0 c #b8c8d0",
"W0 c #e8a838",
"X0 c #282880",
"Y0 c #384090",
"Z0 c #303088",
"a0 c #484898",
"b0 c #785450",
"c0 c #403060",
"d0 c #c8d4e0",
"e0 c #a8c0c8",
"f0 c #b8ccd8",
"g0 c #d89838",
"h0 c #b0c4d0",
"i0 c #181468",
"j0 c #a87448",
"k0 c #b07c40",
"l0 c #e0a038",
"m0 c #181878",
"n0 c #281c68",
"o0 c #98a8c0",
"p0 c #c0d0d8",
"q0 c #505ca0",
"r0 c #080870",
"s0 c #8084b0",
"t0 c #a0b0c8",
"u0 c #c8d4d8",
"v0 c #100c68",
"w0 c #f8b430",
"x0 c #686ca8",
"y0 c #080868",
"z0 c #906848",
"01 c #787cb0",
"11 c #000070",
"21 c #080470",
"31 c #a8b0c8",
"41 c #c8d8e0",
"51 c #e8ecf0",
"61 c #a8b4d0",
"71 c #d0dce0",
"81 c #d8e0e8",
"91 c #e0e4e8",
":1 c #e0e8f0",
";1 c #e0e8e8",
"A1 c #9098c0",
"B1 c #b0b8d0",
"C1 c #b8bcd0",
"D1 c #c0c4d8",
"E1 c #b8c0d8",
"F1 c #98a0c8",
"F1E1D1E1E1D1C1D1E1E1E1C1E1E1E1E1E1C1E1E1C1E1E1C1E1E1E1E1E1E1E1E1C1C1D1C1C1C1C1C1C1C1B1B1C1B1B1A1",
"E1;1;1;1;1;1;1;1;1;1:1;1:1:1;1;1;1:1:1:1;1;1:1:1:1:1;1;1;1:1;1;1;1;1;1;1;1;1918181818171817171B1",
"E1;1;1;1;1;1;1;1:1;1;1:1;1;1;1;1;1:1;1;1;1;1;1;1;1:1;1;1;1;1;1;1;1919191918181818191718171717161",
"E1;1;1;1;1;1;1;1;1;1;1;1;1;1:1;1;1;1;1;1:1;1;1;1;1;1;1;1;1;1;1;191919191819181817171817171717161",
"D1;1;1;1;1;1;1;1;1;1:1;1;1;1;1;1;1;151:1:1:1:1;1;1;1;1;1;1;1;19191919181818171818171717171717161",
"E1;1;1;1;1;1;1;1;1;1;1;1;1;1;191818171;1;1:1;1;1;1;1;1;1;1;1919191818181818181817171717171714131",
"E1:1;1;1;1;1;1;1;1:1;1:1:1;1612111111111F1:1;1;1;1;1;1;19191918191818181718181717171717171714131",
"E1;1;151;1;1;1;1;1;1;1;1;1;10111z0z0z0y0x0:1;1;1;1;191;19191918181917181817171717171717171414131",
"E1;1:1;1;1;1:1;1;1;1:1;1;1;10111w0w0w0v0x0;1:1;1;1;191919181818181818181717171717171u041414141t0",
"E1;1;1;1;1;1;1;1;1;1;1;1;1;10121w0w0w0v0x0;1;1;19191919181818181718171717171717141414141u041u0t0",
"E1;1;1;1;1;1;1;1;1:1;1;1;1;10111w0w0w0v0x0;1;1919191918181818181718171717171714141414141u0u0u0t0",
"E1;1:1;1:1;1;1:1;1;1;1;1;1;1s011w0w0w0r0x0;191;1918181818181817181717171717171414141u041u0u0u0t0",
"E1;1;1;1:1;1;1;1;1;1;1;1;1;10111w0w0w0v0q0D1D1D1E1E1E1C1C1C1717171717171414141414141u0p0u0p0p0o0",
"E1;1;1;1;1;1;1;1;1;1:1;1;1;10111w0w0w0n011111111111111111111m0D1717141414141414141u0u0u0p0p0p0t0",
"E1;1;1:1;1;1;1:1;1;1;1;1;1;10121w0w0w0l0k0k0k0k0k0k0k0k0k0j0i0m0h0414141414141p041p0p0p0p0p0p0t0",
"E1:1;1;1;1:1;1;1:1;1;1;1;1:10121w0w0w0w0w0w0w0w0w0w0w0w0w0w0g0i0m0B14141414141u0p041p0p0p0p0f0o0",
"D1;1;1;1;1;1;1;1;1;1;1;1;1;10111w0w0w0w0w0w0w0w0w0w0w0w0w0w0w0g0i0m0e0u0d0u0u0u0f0u0f0u0p0f0f0o0",
"D1;1;1;1;1;1;1;1;1;1;1;1;1;10111c0c0c0c0c0c0c0c0c0c0c0c0c0b0w0w0l0y0q0u0u0u0u0u0u0f0f0f0f0f0f0o0",
"E1:1;1;1;1;1;1;1;1;1;1;19191u0a0a0Z0Z0a0Z0a0a0Z0Y0Y0Y0Z0X011W0w0w0i0q041u0u0f0u0u0f0f0f0f0f0V0U0",
"E1;1;1;1;1;1;1;1;1;1919191919181818181818181717171717141s011W0w0w0i0q0p0f0u0u0f0f0f0u0f0f0f0V0U0",
"E1;1;1;1;1;1;1;1;1;1919191818181818181717181717171717171s011W0w0w0i0q0p0p0p0p0p0f0f0f0T0f0T0T0S0",
"E1:1:1;1;1;1;1;1919191819181818181817181717171717141d0d0s011W0w0w0i0q0p0R0p0f0R0f0f0f0f0T0f0T0U0",
"E1;1;1;1;1;1;19191919181818181717181717171714171d0d0d0d0s011W0w0w0i0Q0p0R0R0f0f0f0f0f0f0T0T0T0U0",
"E1;1;1;1;191919181918181818171P07171717171714141d0d0d0d0O011W0w0w0i0q0R0p0f0f0f0f0f0f0T0T0T0T0U0",
"E1:1;19191919181818181818171P0P07171717141414141d0d0p0d0O011W0w0w0i0Q0f0f0f0f0V0T0T0T0T0T0T0N0S0",
"E1;1;1;19191;17181818171P08171P07141714141414141d0d0d0d0O011W0w0w0i0Q0f0f0V0V0V0T0T0T0T0T0N0T0O0",
"C1;19191919171;1P0P0M0M0P0P071717171414141414141d0d0R0p0O011W0w0w0i0q0f0V0V0V0V0T0T0T0T0N0N0N0S0",
"C1;1918171919171P0M0M0M0717131m0L0L0K0K0K0K0L0L0J0r0L0L0r011W0w0w0i0Q0V0V0V0V0T0T0T0T0N0T0N0I0S0",
"C191919191719171M0M071M07171H011G0G0G0G0G0G0G0G0G0G0G0G0G0F0w0w0E0y0D0V0T0T0T0N0T0N0N0T0N0N0e0O0",
"C1;1719171919171M07171717171H011w0w0w0w0w0w0w0w0w0w0w0w0w0w0w0E0v0m0e0T0T0T0T0T0N0T0N0N0N0N0I0S0",
"C181917191717171717171714141H011w0w0w0w0w0w0w0w0w0w0w0w0w0w0C021Z0e0T0T0T0T0N0T0N0N0N0N0N0N0I0B0",
"C171917171917171717171417141H011A0A0A0b0A0A0A0A0A0A0A0A0b0G011Z0e0T0T0T0T0T0T0N0N0N0N0e0I0I0I0S0",
"C171817171717171717141414141;0L0v0r0r0r0r0r0K0r0r0r0r0r0r0r0Y0N0T0T0h0h0h0h0e0e0e0e0I0I0I0I0I0B0",
"B17171817171717171414141u0u0d0d0u0p0p0p0p0f0p0f0f0f0f0V0V0V0T0T0T0T0T0N0e0h0h0e0e0e0I0I0I0I0:090",
"B19171717171417141414141u0d0u0p0p0p0p0p0f0p0f0f0f0f0V0V0T0T0T0T0h0T0N0N0h0e0e0e0I0I0I0I0:0:0:0B0",
"B1717171714171414141d0u0d0u0u0p0p0p0p0f0f0f0f0f0V0V0V0T0T0T0h0h0h0h0h0N0e0e0e0I0I0I0I0I0:0:0:090",
"6171717141414141d0d0d0d0p0p0p0p0p0f0f0p0f0f0f0f0V0V0T0T0h0h0h0h0N0N0e0e0e0e0I0I0I0I0:0:0:0:0:090",
"6171807070707071u0d0p0d0p0p0p0p0p0f0f0f0f0f0T0V0V0T0T0T08080808060N0e0e0I0I0I0I04160606060f05040",
"6171717171717141d0p0p0p0p0p0R0R0f0f0f0V0V0V0f0T0T0T0T0h0f0f0V0f0V0e0e0e0I0I0I0:0e0h0h0e0e0I05040",
"6141517070707071d0p0p0p0p0p0R0817080708071T0T0T0T0h0h0h08080606051e09160606060T07160606060f0S040",
"31417171717141u0p0p0p0p0R0R0R0p0u0p0p0p0f0T0T0T0h0T0h0h0f0f0V0V0T0I0T0T0T0T0N0:0I0h0N0N0e0:0S0O0",
"31u09151;151:141u0;1:1:1;191f071:19191;1u0f09191818171e081818181M0I04181M0M0M0N0u071817171h0S090",
"31u0M08181P0M0u0R07171717171f0p0714141u0f0f0u0u0u0u0f0e0u0p0p0p0p0I0f0f0p0f0f0:0h0f0f0f0V0:0S0O0",
"31u0915151;151u0p0;1:1:19181V071;19191;1u0f09191;18171e081818181M0:0M081M0M0M0I0R0717181M0T05090",
"t0u0M0M0P0M0M0p0R07171717141V0p0u041u0u0f0V0u0u0u0u0f0e0p0p0p0p0R0:0T0R0f0f0f0:0N0T0T0T0V0:0S0O0",
"t0p081;1;1;1;1u0R0;191;19181T071;1;1;1;1f0f081818181u0e081818181M0:041M0M0M0M0:0p0M0M0M0M0h0:0O0",
"t0p071M0M07171p0f071714171u0T0R071u0u0u0V0T0p0u0p0p0f0e0R0R0R0R0f050T0R0T0T0T0S0N0T0T0T0f0N050O0",
"30o0t0o0o0o0o0o0U0U0U0U020U020201010101010100000B0B0B090B0B09090O0S0O0O09090O0S0O0O0404090O0O0O0"};
