/* XPM */
static char *image[] = {
"28 28 117 2",
"   c None",
"00 c #504c48",
"10 c #808480",
"20 c #504c40",
"30 c #505448",
"40 c #102830",
"50 c #505840",
"60 c #787c48",
"70 c #808848",
"80 c #807c48",
"90 c #705040",
":0 c #584038",
";0 c #685850",
"A0 c #304040",
"B0 c #386c70",
"C0 c #789480",
"D0 c #b0b470",
"E0 c #b8b870",
"F0 c #b8a470",
"G0 c #b08470",
"H0 c #a88070",
"I0 c #886458",
"J0 c #685c58",
"K0 c #909490",
"L0 c #706c68",
"M0 c #404c50",
"N0 c #204450",
"O0 c #308080",
"P0 c #90a450",
"Q0 c #a8ac48",
"R0 c #b06858",
"S0 c #986858",
"T0 c #807470",
"U0 c #e8ece8",
"V0 c #204448",
"W0 c #387c88",
"X0 c #087080",
"Y0 c #107888",
"Z0 c #609468",
"a0 c #a0a048",
"b0 c #a05830",
"c0 c #c08878",
"d0 c #305458",
"e0 c #307880",
"f0 c #187080",
"g0 c #207488",
"h0 c #408088",
"i0 c #908050",
"j0 c #906458",
"k0 c #a09898",
"l0 c #504840",
"m0 c #605048",
"n0 c #685448",
"o0 c #685450",
"p0 c #905440",
"q0 c #a05030",
"r0 c #b05038",
"s0 c #a0a0a0",
"t0 c #785850",
"u0 c #a04430",
"v0 c #b85038",
"w0 c #c07058",
"x0 c #987868",
"y0 c #a8a4a0",
"z0 c #b0a8a0",
"01 c #885848",
"11 c #984430",
"21 c #a04830",
"31 c #a84c30",
"41 c #b04c30",
"51 c #b85840",
"61 c #c06048",
"71 c #c06850",
"81 c #a07060",
"91 c #784c40",
":1 c #884030",
";1 c #a85438",
"A1 c #b86450",
"B1 c #c06c58",
"C1 c #a86050",
"D1 c #986458",
"E1 c #908c88",
"F1 c #a8a8a8",
"G1 c #a0a098",
"H1 c #988480",
"I1 c #886c60",
"J1 c #a09088",
"K1 c #606060",
"L1 c #585858",
"M1 c #d8dcd8",
"N1 c #e0e4e0",
"O1 c #383838",
"P1 c #808080",
"Q1 c #b0b4b0",
"R1 c #d0d4d0",
"S1 c #404440",
"T1 c #909090",
"U1 c #989898",
"V1 c #a8aca8",
"W1 c #b8b8b8",
"X1 c #f0f0f0",
"Y1 c #c0c0c0",
"Z1 c #b8bcb8",
"a1 c #e0e8e0",
"b1 c #e0e0e0",
"c1 c #c0c4c0",
"d1 c #c8c8c8",
"e1 c #181c18",
"f1 c #888c88",
"g1 c #c8d0c8",
"h1 c #f0f4f0",
"i1 c #f8f8f8",
"j1 c #000000",
"k1 c #202420",
"l1 c #787c78",
"m1 c #686c68",
"n1 c #303030",
"                                                        ",
"                                                        ",
"    n1m1m1m1m1m1m1m1m1m1m1m1m1m1l1m1k1j1j1              ",
"    m1i1i1i1i1i1i1i1i1i1i1i1i1i1h1g1f1e1j1j1            ",
"    m1i1g1d1d1d1d1d1d1d1d1d1d1d1c1b1a1f1e1j1j1          ",
"    m1i1d1g1g1Z1g1g1g1Y1g1d1d1Y1Y1g1X1b1l1e1j1j1        ",
"    m1i1d1c1Y1Z1Y1Y1Y1Z1Y1Y1Y1Z1W1V1U1T1f1S1j1j1        ",
"    m1i1d1d1d1Z1a1a1a1Y1a1a1a1g1R1g1Q1U1P1O1j1j1        ",
"    m1i1c1Y1Y1W1N1N1a1Y1N1N1N1g1M1a1N1Z1N1L1j1j1        ",
"    m1i1c1Y1Z1W1R1R1R1Z1R1R1R1d1d1R1R1Y1a1K1j1j1        ",
"    m1i1c1c1d1W1N1Z1J1I1I1I1H1G1g1h1h1Y1a1K1j1j1        ",
"    m1h1Y1Q1F1E1D1C1B1A1B1A1;1:191E1W1Q1N1K1j1j1        ",
"    m1h1Y1Y1G18171615141413131211101z0W1N1K1j1j1        ",
"    m1h1Z1y0x0w051v041413131u01111:1t0s0N1K1j1j1        ",
"    m1X1Z1y0D161r041r0q0p0t0o0n0m0m0l0E1b1K1j1j1        ",
"    m1X1Z1k0j0w0413121q0i0h0g0f0f0e0d0f1b1K1j1j1        ",
"    m1X1W1G1I1c0;1u0u0b0a0Z0Y0X0g0W0V0f1b1K1j1j1        ",
"    m1U0W1V1T0S0c0R0b0C1Q0P0O0e0W0N0M0U1M1K1j1j1        ",
"    L0a1Q1Q1K0J0I0H0G0F0E0D0C0B0N0A0f1F1M1K1j1j1        ",
"    L0a1Q1Q1Q1E1;0:0908070605040A0G1R1Q1R1K1j1j1        ",
"    m1N1Z1Q1Q1Q1y0E1m1302030K110y0Q1Q1Q1R1K1j1j1        ",
"    L0b1M1M1M1M1M1M1M1M1M1M1M1M1M1M1M1M1R1L1j1j1        ",
"    L1d1c1d1c1c1d1c1c1c1c1c1c1c1c1d1c1c1Q100j1j1        ",
"    j1j1j1j1j1j1j1j1j1j1j1j1j1j1j1j1j1j1j1j1j1j1        ",
"    j1j1j1j1j1j1j1j1j1j1j1j1j1j1j1j1j1j1j1j1j1j1        ",
"    j1j1j1j1j1j1j1j1j1j1j1j1j1j1j1j1j1j1j1j1j1          ",
"                                                        ",
"                                                        "};
