/* XPM */
static char *image[] = {
"28 28 55 1",
"  c None",
"0 c #606058",
"1 c #908888",
"2 c #989488",
"3 c #b0a8a0",
"4 c #485470",
"5 c #808ca8",
"6 c #989ca8",
"7 c #989490",
"8 c #a09898",
"9 c #687cb0",
": c #908c98",
"; c #9894a0",
"A c #a09888",
"B c #6074a0",
"C c #808098",
"D c #687ca8",
"E c #505870",
"F c #505c78",
"G c #a09890",
"H c #888478",
"I c #d8dcd8",
"J c #a0a4a0",
"K c #807c70",
"L c #e8ece8",
"M c #707068",
"N c #d8d8d0",
"O c #c8ccc8",
"P c #c0c0c0",
"Q c #686460",
"R c #808080",
"S c #989c98",
"T c #a8acb8",
"U c #c0c4c0",
"V c #a0a8a0",
"W c #a0a0a0",
"X c #e8e8e0",
"Y c #383838",
"Z c #b0b0b0",
"a c #a8aca8",
"b c #d0d4d0",
"c c #b8bcb8",
"d c #e8f0e8",
"e c #202020",
"f c #c8c8c0",
"g c #e0e0d8",
"h c #e0e4e0",
"i c #f8f8f8",
"j c #f0f4f0",
"k c #d0d0c8",
"l c #606060",
"m c #282828",
"n c #100c10",
"o c #000000",
"p c #585858",
"                            ",
"                            ",
"                   p        ",
"    oooooooooooooonmloo     ",
"    okjiiiiiiiijjjhgfeoo    ",
"    ojifdcfdcbiijdahiZYoo   ",
"    oiidiiiiiiiijXWdijVnoo  ",
"    oiiWgkUgUTUijdSooooooo  ",
"    oiiiiiiijijjjjkZRRQooo  ",
"    oiicZUPONPNjjdgNUZMooo  ",
"    oiiijjjjjjjjLLLLgcKooo  ",
"    oijaXkkfgaUcPZcaJIHooo  ",
"    oijddddjjjdLLXXgIIGooo  ",
"    oidOcPUTUUbUVPZZcIGooo  ",
"    oiddLLLLLLLLXhggIIGooo  ",
"    oiLbcckkULFFEEEEEIGooo  ",
"    oiLLXLXXXXFDCCBBEIAooo  ",
"    oiXIIkPPfXFT;:99ENAooo  ",
"    oiXhhhhhhhFZ87654NAooo  ",
"    oihfbccfUIE372314b2ooo  ",
"    ojggIIIIgIEEEEEE4b2ooo  ",
"    oXIIIIIIIIIIINNbbb2ooo  ",
"    okIIININININNNNbkk2ooo  ",
"    o7GGGGGAAAAAA222220ooo  ",
"    oooooooooooooooooooooo  ",
"    oooooooooooooooooooooo  ",
"                            ",
"                            "};
