/* XPM */
static char *image[] = {
"48 48 2 1",
"0 c #000000",
"1 c #ffffff",
"111111111111111111111111111111111111111111111111",
"100001111111111111111111111111111111111111111111",
"101110111111111111111111011111111111111111111111",
"101110101111100011011101111000110101011000110111",
"100001100001011101011101010111010101010111010000",
"101111101111000011101011010000110101010000110111",
"101111101111011111101011010111110101010111110111",
"101111101111100011110111011000111010111000110111",
"111111111111111111111111111111111111111111111111",
"111111111111111111111111111111111111111111111111",
"111111111111111111111111111111111111111111111111",
"111000000000000000000000000000000000011111111111",
"011000011110011111100111001101111001011111111111",
"011010011111011111100111100011111001011111111111",
"000011001111101111000111100011111001010011111111",
"011010000011110000100001110111100000001101111111",
"011011111111111111111111111111111111001111111111",
"111011111111111111111111111111111111000111001100",
"111011111111111111111111111111111111001110110101",
"101011111111111111111111111111111111001110110101",
"101011111111110000000000001111111111001111001101",
"101011111111111111111111111111111111011111111111",
"101011111111111111111111111111111111011111111111",
"101011111111110000000000001111111111011111111111",
"101011111111111111111111111111111111011111111111",
"111011111111111111111111111111111111011111111111",
"101011111111111111111111111111111111011111111111",
"111011111111111111111111111111111111000000010111",
"001011111100111111000011111111000011011011111011",
"110011111000111100111101111110111001011011111101",
"110011111000111001111110111101111001011010000010",
"101011110100111001111110011001111111011010111110",
"101011101100111001111110010011111111011010111101",
"111011011100111001111110010010000111011010000011",
"101010011100111100111100010001111001011010110111",
"111000111100111111000010010011111100011110111111",
"111000000000001111111110010011111100011110000011",
"001011111100111111111110110011111100011111111111",
"001011111100111100111100111001111100011111111111",
"101011111100111100111001111101111001011111111111",
"011011100000001110000111111110000111011111111111",
"111011111111111111111111111111111111011111111111",
"111011111111111111111111111111111111011111111111",
"101011111111111111111111111111111111011111111111",
"000000000000000000000000000000000000011110001010",
"000011111111111111111110110111101010111110001010",
"000111101101100110011110110111101110111110111101",
"101111010101110110111000110001110001111110111101"};
