/* XPM */
static char *image[] = {
"40 20 2 1",
"0 c #000000",
"1 c #ffffff",
"1111111111111111111111111111111111111111",
"1111111111111111111111111111111111111111",
"1110011111100111111001111110011111000011",
"1110011111100111100000011110011111000011",
"1110011111100111100000011110011111000011",
"1110011111100111111001111110011111000011",
"1000000111100111111001111110011111111111",
"1000000111100111111001111110011111111111",
"1110011111100111111001111000000111111111",
"1110011111100111111001111000000111100111",
"1110011111100111111001111110011111100111",
"1110011111100111111001111110011111111111",
"1110011111100111111001111110011111111111",
"1110011111100111111001111110011111111111",
"1110011110000001111001111110011111000011",
"1110011110000001111001111110011111000011",
"1110011111100111111001111110011111000011",
"1110011111100111111001111110011111000011",
"1111111111111111111111111111111111111111",
"1111111111111111111111111111111111111111"};
